STARTFONT 2.1
FONT -FontForge-ITC Benguiat Gothic Std-Bold-R-Normal--28-200-100-100-P-148-ISO8859-1
SIZE 20 100 100
FONTBOUNDINGBOX 33 34 -5 -7
COMMENT "Generated by fontforge, http://fontforge.sourceforge.net"
COMMENT "Copyright 1990, 1995 , 2002Adobe Systems Incorporated. All Rights Reserved. ITC Benguiat Gothic is a registered trademark of International Typeface Corporation."
STARTPROPERTIES 40
FOUNDRY "FontForge"
FAMILY_NAME "ITC Benguiat Gothic Std"
WEIGHT_NAME "Bold"
SLANT "R"
SETWIDTH_NAME "Normal"
ADD_STYLE_NAME ""
PIXEL_SIZE 28
POINT_SIZE 200
RESOLUTION_X 100
RESOLUTION_Y 100
SPACING "P"
AVERAGE_WIDTH 148
CHARSET_REGISTRY "ISO8859"
CHARSET_ENCODING "1"
FONTNAME_REGISTRY ""
CHARSET_COLLECTIONS "ISOLatin1Encoding"
FONT_NAME "BenguiatGothicStd-Bold"
FACE_NAME "ITC Benguiat Gothic Std Bold"
COPYRIGHT "Copyright 1990, 1995 , 2002Adobe Systems Incorporated. All Rights Reserved. ITC Benguiat Gothic is a registered trademark of International Typeface Corporation."
FONT_VERSION "001.001"
FONT_ASCENT 19
FONT_DESCENT 9
UNDERLINE_POSITION -3
UNDERLINE_THICKNESS 2
X_HEIGHT 14
CAP_HEIGHT 19
RAW_ASCENT 691
RAW_DESCENT 309
NORM_SPACE 9
RELATIVE_WEIGHT 70
RELATIVE_SETWIDTH 50
SUPERSCRIPT_X 0
SUPERSCRIPT_Y 9
SUPERSCRIPT_SIZE 16
SUBSCRIPT_X 0
SUBSCRIPT_Y 2
SUBSCRIPT_SIZE 16
FIGURE_WIDTH 17
AVG_LOWERCASE_WIDTH 145
AVG_UPPERCASE_WIDTH 170
ENDPROPERTIES
CHARS 253
STARTCHAR space
ENCODING 32
SWIDTH 305 0
DWIDTH 9 0
BBX 1 1 0 0
BITMAP
00
ENDCHAR
STARTCHAR exclam
ENCODING 33
SWIDTH 333 0
DWIDTH 9 0
BBX 4 20 3 0
BITMAP
E0
F0
F0
F0
F0
F0
F0
E0
E0
E0
E0
E0
E0
E0
00
00
E0
F0
F0
E0
ENDCHAR
STARTCHAR quotedbl
ENCODING 34
SWIDTH 333 0
DWIDTH 9 0
BBX 7 8 1 12
BITMAP
C6
E6
E6
E6
E6
E6
E6
46
ENDCHAR
STARTCHAR numbersign
ENCODING 35
SWIDTH 611 0
DWIDTH 17 0
BBX 15 20 1 0
BITMAP
0738
0638
0638
0E38
0E38
0E30
7FFE
7FFE
7FFE
0C70
1C70
FFFC
FFFC
FFFC
1CE0
18E0
18E0
18E0
38E0
38C0
ENDCHAR
STARTCHAR dollar
ENCODING 36
SWIDTH 611 0
DWIDTH 17 0
BBX 15 24 1 -2
BITMAP
0300
0700
0780
0780
1FF8
7FF8
FFF8
F000
F000
FF80
7FF8
1FFC
07FE
079E
079E
079E
07BE
FFFC
FFF8
FFE0
0780
0780
0780
0300
ENDCHAR
STARTCHAR percent
ENCODING 37
SWIDTH 944 0
DWIDTH 26 0
BBX 24 20 1 0
BITMAP
1F0180
3F83C0
7FC380
F1C780
F1C780
F1CF00
F1CF00
7FCE00
3F9E00
1F1C00
003C78
0039FE
0079FF
0073CF
00F387
00E387
01E3CF
01C1FF
03C1FE
018078
ENDCHAR
STARTCHAR ampersand
ENCODING 38
SWIDTH 778 0
DWIDTH 22 0
BBX 20 20 1 0
BITMAP
07C000
0FF000
1FF000
1E7800
1C7800
1E7B80
1E7BC0
1FF3C0
3FE3C0
7FC1C0
FBE3C0
F1F3C0
F07F80
F03F80
F01F80
F80F80
7C7FC0
7FFFE0
1FF9F0
07E060
ENDCHAR
STARTCHAR quotesingle
ENCODING 39
SWIDTH 222 0
DWIDTH 6 0
BBX 3 8 2 12
BITMAP
C0
E0
E0
E0
E0
E0
E0
C0
ENDCHAR
STARTCHAR parenleft
ENCODING 40
SWIDTH 389 0
DWIDTH 11 0
BBX 8 26 2 -6
BITMAP
07
0F
1E
1E
3C
78
78
F0
F0
E0
E0
E0
E0
E0
E0
E0
E0
F0
F0
78
78
3C
1E
1E
0F
07
ENDCHAR
STARTCHAR parenright
ENCODING 41
SWIDTH 389 0
DWIDTH 11 0
BBX 8 26 1 -6
BITMAP
E0
F0
F8
78
3C
1E
1E
0E
0F
0F
07
07
07
07
07
07
0F
0F
0E
1E
1C
3C
78
F8
F0
E0
ENDCHAR
STARTCHAR asterisk
ENCODING 42
SWIDTH 444 0
DWIDTH 12 0
BBX 9 10 2 10
BITMAP
1800
1800
DB80
EF80
7E00
7E00
FF80
DB80
1800
1800
ENDCHAR
STARTCHAR plus
ENCODING 43
SWIDTH 600 0
DWIDTH 17 0
BBX 15 15 1 0
BITMAP
0380
0380
0380
0380
0380
0380
FFFE
FFFE
FFFE
0380
0380
0380
0380
0380
0380
ENDCHAR
STARTCHAR comma
ENCODING 44
SWIDTH 305 0
DWIDTH 9 0
BBX 5 8 1 -3
BITMAP
18
38
38
78
70
70
F0
60
ENDCHAR
STARTCHAR hyphen
ENCODING 45
SWIDTH 333 0
DWIDTH 9 0
BBX 7 3 1 6
BITMAP
7E
FE
7E
ENDCHAR
STARTCHAR period
ENCODING 46
SWIDTH 305 0
DWIDTH 9 0
BBX 4 4 2 0
BITMAP
70
F0
F0
70
ENDCHAR
STARTCHAR slash
ENCODING 47
SWIDTH 278 0
DWIDTH 8 0
BBX 10 20 -1 0
BITMAP
0180
03C0
0380
0780
0780
0700
0F00
0F00
0E00
1E00
1E00
1C00
3C00
3800
7800
7800
7000
F000
F000
6000
ENDCHAR
STARTCHAR zero
ENCODING 48
SWIDTH 611 0
DWIDTH 17 0
BBX 15 20 1 0
BITMAP
07C0
1FF0
3FF8
7EFC
783C
701C
F01E
F01E
F01E
F01E
F01E
F01E
F01E
F01E
701E
783C
7EFC
3FF8
1FF0
07C0
ENDCHAR
STARTCHAR one
ENCODING 49
SWIDTH 611 0
DWIDTH 17 0
BBX 13 20 3 0
BITMAP
0700
7F00
FF00
FF00
0F00
0F00
0F00
0F00
0F00
0F00
0F00
0F00
0F00
0F00
0F00
0F00
0F00
FFF8
FFF8
FFF8
ENDCHAR
STARTCHAR two
ENCODING 50
SWIDTH 611 0
DWIDTH 17 0
BBX 15 20 1 0
BITMAP
7FE0
7FF8
7FFC
00FC
003C
003C
003C
007C
01F8
03F0
0FE0
1FC0
3F00
7C00
F800
F000
F000
FFFE
FFFE
7FFE
ENDCHAR
STARTCHAR three
ENCODING 51
SWIDTH 611 0
DWIDTH 17 0
BBX 15 20 1 0
BITMAP
7FF8
7FFC
7FFC
00F8
03F0
07C0
1F80
3FE0
3FF8
1FFC
007E
001E
001E
001E
001E
001E
007E
FFFC
FFF8
FFE0
ENDCHAR
STARTCHAR four
ENCODING 52
SWIDTH 611 0
DWIDTH 17 0
BBX 17 20 0 0
BITMAP
007800
01F800
03F800
07F800
0F3800
1E3800
1C3800
3C3800
383800
783800
703800
703800
FFFF80
FFFF80
7FFF80
003800
003800
003800
003800
003800
ENDCHAR
STARTCHAR five
ENCODING 53
SWIDTH 611 0
DWIDTH 17 0
BBX 16 20 1 0
BITMAP
3FF8
7FF8
7FF8
7800
7800
7800
7FC0
7FF0
7FFC
007C
003E
001E
000E
000F
000E
001E
007E
FFFC
FFF8
FFE0
ENDCHAR
STARTCHAR six
ENCODING 54
SWIDTH 611 0
DWIDTH 17 0
BBX 15 20 1 0
BITMAP
07FC
1FFE
3FFC
3E00
7800
7800
F7F0
FFF8
FFFC
FC3E
F81E
F01E
F00E
F00E
F01E
781E
7C7C
3FFC
1FF8
07E0
ENDCHAR
STARTCHAR seven
ENCODING 55
SWIDTH 611 0
DWIDTH 17 0
BBX 13 20 2 0
BITMAP
FFF8
FFF8
FFF8
0038
0078
0078
00F0
01F0
01E0
03C0
07C0
0780
0F00
0F00
1E00
1E00
1E00
1E00
1E00
0E00
ENDCHAR
STARTCHAR eight
ENCODING 56
SWIDTH 611 0
DWIDTH 17 0
BBX 15 20 1 0
BITMAP
0FE0
1FF0
3FFC
7C7C
783C
783C
7C7C
3FF8
1FF8
7FFC
FC7E
F01E
F01E
F01E
F01E
F83E
FEFE
7FFC
3FF8
0FE0
ENDCHAR
STARTCHAR nine
ENCODING 57
SWIDTH 611 0
DWIDTH 17 0
BBX 15 20 1 0
BITMAP
0FC0
3FF0
7FF8
7C7C
F03C
F01E
F01E
F01E
F01E
F03E
F87E
7FFE
3FFE
1FDE
003C
003C
00F8
7FF8
FFF0
7FC0
ENDCHAR
STARTCHAR colon
ENCODING 58
SWIDTH 305 0
DWIDTH 9 0
BBX 4 12 2 0
BITMAP
70
F0
F0
70
00
00
00
00
70
F0
F0
70
ENDCHAR
STARTCHAR semicolon
ENCODING 59
SWIDTH 305 0
DWIDTH 9 0
BBX 5 15 1 -3
BITMAP
30
78
78
30
00
00
00
38
38
78
78
70
F0
E0
60
ENDCHAR
STARTCHAR less
ENCODING 60
SWIDTH 600 0
DWIDTH 17 0
BBX 15 15 1 0
BITMAP
0006
001E
007E
03FC
0FE0
7F80
FE00
F000
FE00
7F80
0FE0
03FC
007E
001E
0006
ENDCHAR
STARTCHAR equal
ENCODING 61
SWIDTH 600 0
DWIDTH 17 0
BBX 15 9 1 3
BITMAP
FFFE
FFFE
FFFE
0000
0000
0000
FFFE
FFFE
FFFE
ENDCHAR
STARTCHAR greater
ENCODING 62
SWIDTH 600 0
DWIDTH 17 0
BBX 15 15 1 0
BITMAP
8000
F000
FC00
7F80
1FE0
03F8
00FE
001E
00FE
03F8
1FE0
7F80
FC00
F000
C000
ENDCHAR
STARTCHAR question
ENCODING 63
SWIDTH 500 0
DWIDTH 14 0
BBX 12 20 1 0
BITMAP
FF80
FFE0
FFF0
00F0
00F0
00F0
01E0
03E0
0FC0
0F80
1E00
1C00
1C00
1C00
0000
0000
1C00
3C00
3C00
1C00
ENDCHAR
STARTCHAR at
ENCODING 64
SWIDTH 800 0
DWIDTH 22 0
BBX 20 20 1 0
BITMAP
01FC00
07FF00
0F03C0
1C01E0
3820E0
71FB70
73FF70
678F30
E70630
E70630
E60630
E60E60
670E60
77FFC0
73FF80
39EF00
1C00E0
0F03C0
07FF00
01FC00
ENDCHAR
STARTCHAR A
ENCODING 65
SWIDTH 667 0
DWIDTH 19 0
BBX 17 20 1 0
BITMAP
01C000
03E000
07E000
0FF000
0F7000
1E7800
1E3800
1C3C00
3C1C00
3F9E00
7FFE00
7FFE00
707F00
F03F00
F00F00
F00F80
E00780
E00780
E00780
E00300
ENDCHAR
STARTCHAR B
ENCODING 66
SWIDTH 611 0
DWIDTH 17 0
BBX 14 20 2 0
BITMAP
FFE0
FFF8
FFF8
E078
E038
E038
FE78
FFF0
FFE0
E3F0
E0F8
E07C
E03C
E03C
E01C
E03C
E07C
FFF8
FFF8
FFE0
ENDCHAR
STARTCHAR C
ENCODING 67
SWIDTH 611 0
DWIDTH 17 0
BBX 15 20 1 0
BITMAP
07FE
1FFE
3FFE
7F00
7800
F800
F000
F000
F000
F000
F000
7800
7800
7C00
3E00
1F80
0FF8
07FE
03FE
007E
ENDCHAR
STARTCHAR D
ENCODING 68
SWIDTH 667 0
DWIDTH 19 0
BBX 16 20 2 0
BITMAP
FE00
FF80
FFE0
E7F0
E1F8
E07C
E03C
E03E
E01E
E01E
E00F
E00F
E00F
E00E
E01E
E03E
E1FC
FFFC
FFF8
FFE0
ENDCHAR
STARTCHAR E
ENCODING 69
SWIDTH 556 0
DWIDTH 16 0
BBX 12 20 2 0
BITMAP
FFF0
FFF0
FFF0
F000
F000
F000
FFF0
FFF0
FFF0
F000
F000
F000
F000
F000
F000
F000
F000
FFF0
FFF0
7FF0
ENDCHAR
STARTCHAR F
ENCODING 70
SWIDTH 500 0
DWIDTH 14 0
BBX 12 20 2 0
BITMAP
FFE0
FFF0
FFE0
F000
F000
F000
FFE0
FFE0
FFE0
F000
F000
F000
F000
F000
F000
F000
F000
F000
F000
E000
ENDCHAR
STARTCHAR G
ENCODING 71
SWIDTH 722 0
DWIDTH 20 0
BBX 18 20 1 0
BITMAP
07FF00
1FFF80
3FFF80
7F0000
780000
F80000
F07F80
F0FFC0
F0FFC0
F003C0
F003C0
F803C0
7803C0
7C03C0
3E03C0
1F83C0
0FF3C0
07FFC0
01FFC0
007F80
ENDCHAR
STARTCHAR H
ENCODING 72
SWIDTH 611 0
DWIDTH 17 0
BBX 13 20 2 0
BITMAP
E038
E038
E038
E038
E038
E038
FFF8
FFF8
FFF8
E038
E038
E038
E038
E038
E038
E038
E038
E038
E038
E038
ENDCHAR
STARTCHAR I
ENCODING 73
SWIDTH 278 0
DWIDTH 8 0
BBX 4 20 2 0
BITMAP
60
F0
F0
F0
F0
F0
F0
F0
F0
F0
F0
F0
F0
F0
F0
F0
F0
F0
F0
60
ENDCHAR
STARTCHAR J
ENCODING 74
SWIDTH 444 0
DWIDTH 12 0
BBX 11 20 0 0
BITMAP
00C0
01E0
01E0
01E0
01E0
01E0
01E0
01E0
01E0
01E0
01E0
01E0
01E0
01E0
01E0
01E0
F7C0
FFC0
FF80
3E00
ENDCHAR
STARTCHAR K
ENCODING 75
SWIDTH 611 0
DWIDTH 17 0
BBX 15 20 2 0
BITMAP
E038
E038
E038
E078
E0F8
E1F0
FFE0
FFC0
FFC0
E3E0
E0F0
E078
E038
E03C
E03C
E01C
E01E
E01E
E01E
E00C
ENDCHAR
STARTCHAR L
ENCODING 76
SWIDTH 444 0
DWIDTH 12 0
BBX 11 20 2 0
BITMAP
6000
E000
F000
F000
F000
F000
F000
F000
F000
F000
F000
F000
F000
F000
F000
F000
F000
FFE0
FFE0
7FC0
ENDCHAR
STARTCHAR M
ENCODING 77
SWIDTH 722 0
DWIDTH 20 0
BBX 18 20 1 0
BITMAP
1C0700
3C0F00
3E1F00
3E1F80
7F1F80
7F3B80
77BB80
73FB80
73F380
71F380
71E3C0
7003C0
7003C0
F003C0
F003C0
F003C0
F003C0
F003C0
F003C0
600180
ENDCHAR
STARTCHAR N
ENCODING 78
SWIDTH 611 0
DWIDTH 17 0
BBX 13 20 2 0
BITMAP
6038
F038
F838
FC38
FE38
FF38
EFF8
E7F8
E3F8
E0F8
E038
E038
E038
E038
E038
E038
E038
E038
E038
E038
ENDCHAR
STARTCHAR O
ENCODING 79
SWIDTH 722 0
DWIDTH 20 0
BBX 18 20 1 0
BITMAP
03F000
0FFC00
1FFE00
3F1F00
7C0F80
780780
F803C0
F003C0
F003C0
F003C0
F003C0
F003C0
F003C0
F803C0
780780
7C0F80
3F1F00
1FFE00
0FFC00
03F000
ENDCHAR
STARTCHAR P
ENCODING 80
SWIDTH 556 0
DWIDTH 16 0
BBX 14 20 2 0
BITMAP
FFE0
FFF8
FFF8
E03C
E03C
E078
E0F8
E3F0
FFE0
FFC0
FF00
F800
E000
E000
E000
E000
E000
E000
E000
E000
ENDCHAR
STARTCHAR Q
ENCODING 81
SWIDTH 722 0
DWIDTH 20 0
BBX 18 24 1 -4
BITMAP
03F000
0FFC00
1FFE00
3F1F00
7C0F80
780780
F803C0
F003C0
F003C0
F003C0
F003C0
F183C0
F3E3C0
FBF3C0
79F780
7C7F80
3F7F00
1FFE00
0FFC00
03FC00
001F00
001FC0
000FC0
0003C0
ENDCHAR
STARTCHAR R
ENCODING 82
SWIDTH 611 0
DWIDTH 17 0
BBX 15 20 2 0
BITMAP
FFE0
FFF8
FFF8
E078
E038
E038
FE78
FFF0
FFE0
E3F0
E0F0
E078
E038
E03C
E01C
E01C
E01C
E01E
E01C
E00C
ENDCHAR
STARTCHAR S
ENCODING 83
SWIDTH 611 0
DWIDTH 17 0
BBX 15 20 1 0
BITMAP
1FF8
7FF8
7FF8
F800
F000
F000
FE00
7FE0
3FF8
0FFC
007E
001E
001E
001E
001E
001E
00FC
FFFC
FFF0
FFE0
ENDCHAR
STARTCHAR T
ENCODING 84
SWIDTH 500 0
DWIDTH 14 0
BBX 14 20 0 0
BITMAP
7FF8
FFFC
FFFC
0780
0780
0780
0780
0780
0780
0780
0780
0780
0780
0780
0780
0780
0780
0780
0780
0300
ENDCHAR
STARTCHAR U
ENCODING 85
SWIDTH 611 0
DWIDTH 17 0
BBX 15 20 1 0
BITMAP
3018
783C
783C
783C
783C
701C
701C
701C
701C
701C
701E
F01E
F01E
F01E
701E
783C
7C7C
3FF8
1FF0
07C0
ENDCHAR
STARTCHAR V
ENCODING 86
SWIDTH 611 0
DWIDTH 17 0
BBX 15 20 1 0
BITMAP
E00E
E00E
F01E
F01E
F01E
F01E
F01E
701C
783C
783C
783C
3838
3C78
1C78
1EF0
1EF0
0FE0
0FE0
07C0
0380
ENDCHAR
STARTCHAR W
ENCODING 87
SWIDTH 833 0
DWIDTH 23 0
BBX 21 20 1 0
BITMAP
E07038
E07038
E07838
F07838
F07838
F07838
F0F878
F0F878
70F878
70F870
70FC70
79DC70
39DCF0
39DEE0
3FCEE0
3F8FE0
1F8FC0
1F07C0
0F07C0
0E0380
ENDCHAR
STARTCHAR X
ENCODING 88
SWIDTH 611 0
DWIDTH 17 0
BBX 17 20 0 0
BITMAP
300600
780F00
7C1F00
3C1E00
3E3E00
1F7C00
0FF800
03E000
07F000
0FF800
1F7C00
1E3E00
3C1E00
3C1F00
780F00
780F00
700700
F00780
F00780
700700
ENDCHAR
STARTCHAR Y
ENCODING 89
SWIDTH 556 0
DWIDTH 16 0
BBX 15 20 0 0
BITMAP
600E
F01E
701E
781E
783C
3C3C
3C78
1EF8
0FF0
07E0
03C0
03C0
03C0
03C0
03C0
03C0
03C0
03C0
03C0
0380
ENDCHAR
STARTCHAR Z
ENCODING 90
SWIDTH 500 0
DWIDTH 14 0
BBX 12 20 1 0
BITMAP
7FF0
FFF0
7FF0
0070
00F0
00F0
01E0
03E0
07C0
0F80
1F00
3E00
7C00
7800
F000
F000
E000
FFF0
FFF0
7FF0
ENDCHAR
STARTCHAR bracketleft
ENCODING 91
SWIDTH 389 0
DWIDTH 11 0
BBX 8 26 2 -6
BITMAP
7F
FF
FF
E0
E0
E0
E0
E0
E0
E0
E0
E0
E0
E0
E0
E0
E0
E0
E0
E0
E0
E0
E0
FF
FF
7F
ENDCHAR
STARTCHAR backslash
ENCODING 92
SWIDTH 278 0
DWIDTH 8 0
BBX 10 20 -1 0
BITMAP
6000
F000
F000
7000
7800
7800
3800
3C00
3C00
1C00
1E00
0E00
0F00
0F00
0700
0780
0780
0380
03C0
0180
ENDCHAR
STARTCHAR bracketright
ENCODING 93
SWIDTH 389 0
DWIDTH 11 0
BBX 8 26 1 -6
BITMAP
FE
FF
FF
0F
0F
0F
0F
0F
0F
0F
0F
0F
0F
0F
0F
0F
0F
0F
0F
0F
0F
0F
0F
FF
FF
FE
ENDCHAR
STARTCHAR asciicircum
ENCODING 94
SWIDTH 600 0
DWIDTH 17 0
BBX 13 11 2 9
BITMAP
0700
0F00
0F80
1D80
1DC0
38C0
38E0
70E0
7070
E070
E038
ENDCHAR
STARTCHAR underscore
ENCODING 95
SWIDTH 500 0
DWIDTH 14 0
BBX 14 1 0 -3
BITMAP
FFFC
ENDCHAR
STARTCHAR grave
ENCODING 96
SWIDTH 278 0
DWIDTH 8 0
BBX 8 4 0 16
BITMAP
E0
FC
FF
0E
ENDCHAR
STARTCHAR a
ENCODING 97
SWIDTH 556 0
DWIDTH 16 0
BBX 12 15 1 0
BITMAP
7FC0
7FE0
7FF0
0070
0070
0FF0
3FF0
7FF0
F070
E070
E070
F0F0
FFF0
7FF0
3F70
ENDCHAR
STARTCHAR b
ENCODING 98
SWIDTH 556 0
DWIDTH 16 0
BBX 13 20 2 0
BITMAP
E000
E000
E000
E000
E000
FE00
FF80
FFC0
E7E0
E1F0
E0F0
E070
E078
E078
E078
E070
E0F0
FFF0
FFE0
FF80
ENDCHAR
STARTCHAR c
ENCODING 99
SWIDTH 500 0
DWIDTH 14 0
BBX 13 15 1 0
BITMAP
1FF0
3FF8
7FF0
F800
F000
F000
F000
F000
F000
F800
7800
3F00
3FF8
0FF8
03F0
ENDCHAR
STARTCHAR d
ENCODING 100
SWIDTH 556 0
DWIDTH 16 0
BBX 13 20 1 0
BITMAP
0030
0078
0078
0078
0078
03F8
0FF8
3FF8
7E78
7878
F078
F078
E078
E078
E078
F078
F878
7FF8
3FF8
0FF0
ENDCHAR
STARTCHAR e
ENCODING 101
SWIDTH 556 0
DWIDTH 16 0
BBX 14 15 1 0
BITMAP
0FC0
1FE0
3FF0
7878
7078
F038
FFFC
FFFC
FFF0
F000
F000
7C00
7FF8
3FF8
0FF8
ENDCHAR
STARTCHAR f
ENCODING 102
SWIDTH 333 0
DWIDTH 9 0
BBX 10 20 0 0
BITMAP
0FC0
1FC0
3FC0
3C00
3C00
FF80
FFC0
FF80
3C00
3C00
3C00
3C00
3C00
3C00
3C00
3C00
3C00
3C00
3C00
1800
ENDCHAR
STARTCHAR g
ENCODING 103
SWIDTH 556 0
DWIDTH 16 0
BBX 14 21 1 -6
BITMAP
07F8
1FFC
3FF8
7C70
7870
F070
F070
E070
E070
E070
F070
7870
7FF8
3FFC
0FFC
001C
001C
E07C
FFF8
FFF0
1FC0
ENDCHAR
STARTCHAR h
ENCODING 104
SWIDTH 556 0
DWIDTH 16 0
BBX 12 20 2 0
BITMAP
E000
E000
E000
E000
E000
EF80
FFC0
FFE0
F8F0
F0F0
E0F0
E0F0
E0F0
E0F0
E0F0
E0F0
E0F0
E0F0
E0F0
E060
ENDCHAR
STARTCHAR i
ENCODING 105
SWIDTH 278 0
DWIDTH 8 0
BBX 4 20 2 0
BITMAP
60
F0
F0
E0
00
60
F0
F0
F0
F0
F0
F0
F0
F0
F0
F0
F0
F0
F0
60
ENDCHAR
STARTCHAR j
ENCODING 106
SWIDTH 222 0
DWIDTH 6 0
BBX 9 26 -4 -6
BITMAP
0300
0780
0780
0380
0000
0300
0780
0780
0780
0780
0780
0780
0780
0780
0780
0780
0780
0780
0780
0780
0780
0780
0F00
FF00
FE00
7C00
ENDCHAR
STARTCHAR k
ENCODING 107
SWIDTH 500 0
DWIDTH 14 0
BBX 12 20 2 0
BITMAP
E000
E000
E000
E000
E000
E0C0
E1E0
E1C0
E7C0
FF80
FE00
FF80
E7C0
E1E0
E1E0
E0E0
E0F0
E0F0
E0F0
E060
ENDCHAR
STARTCHAR l
ENCODING 108
SWIDTH 278 0
DWIDTH 8 0
BBX 4 20 2 0
BITMAP
60
F0
F0
F0
F0
F0
F0
F0
F0
F0
F0
F0
F0
F0
F0
F0
F0
F0
F0
60
ENDCHAR
STARTCHAR m
ENCODING 109
SWIDTH 833 0
DWIDTH 23 0
BBX 20 15 2 0
BITMAP
CF0F80
FFDFC0
FFFFE0
F1F9E0
F0F0F0
E0E0F0
E0E0F0
E0E0F0
E0E0F0
E0E0F0
E0E0F0
E0E0F0
E0E0F0
E0E0F0
E0E060
ENDCHAR
STARTCHAR n
ENCODING 110
SWIDTH 556 0
DWIDTH 16 0
BBX 12 15 2 0
BITMAP
EF80
FFC0
FFE0
F8F0
F0F0
E0F0
E0F0
E0F0
E0F0
E0F0
E0F0
E0F0
E0F0
E0F0
E060
ENDCHAR
STARTCHAR o
ENCODING 111
SWIDTH 556 0
DWIDTH 16 0
BBX 14 15 1 0
BITMAP
0FC0
3FE0
7FF0
78F8
F078
F038
E03C
E03C
E03C
F038
F078
78F8
7FF0
3FE0
0F80
ENDCHAR
STARTCHAR p
ENCODING 112
SWIDTH 556 0
DWIDTH 16 0
BBX 13 21 2 -6
BITMAP
FE00
FF80
FFC0
E3E0
E1F0
E0F0
E078
E078
E078
E078
E070
E1F0
FFF0
FFE0
FF80
E000
E000
E000
E000
E000
E000
ENDCHAR
STARTCHAR q
ENCODING 113
SWIDTH 556 0
DWIDTH 16 0
BBX 13 21 1 -6
BITMAP
03F0
1FF8
3FF8
7E78
7878
F078
F078
E078
E078
E078
F078
F878
7FF8
3FF8
0FF8
0078
0078
0078
0078
0078
0030
ENDCHAR
STARTCHAR r
ENCODING 114
SWIDTH 333 0
DWIDTH 9 0
BBX 8 15 2 0
BITMAP
EE
FF
FE
F0
F0
E0
E0
E0
E0
E0
E0
E0
E0
E0
E0
ENDCHAR
STARTCHAR s
ENCODING 115
SWIDTH 500 0
DWIDTH 14 0
BBX 12 15 1 0
BITMAP
3FE0
7FE0
FFE0
E000
F000
FF80
7FE0
3FF0
00F0
0070
0070
00F0
FFF0
FFE0
FF80
ENDCHAR
STARTCHAR t
ENCODING 116
SWIDTH 389 0
DWIDTH 11 0
BBX 11 19 0 0
BITMAP
1C00
1C00
1C00
1C00
7FC0
FFC0
7FC0
1C00
1C00
1C00
1C00
1C00
1C00
1C00
1C00
1E00
1FE0
0FE0
07E0
ENDCHAR
STARTCHAR u
ENCODING 117
SWIDTH 556 0
DWIDTH 16 0
BBX 12 15 2 0
BITMAP
E060
E0F0
E0F0
E0F0
E0F0
E0F0
E0F0
E0F0
E0F0
E0F0
E0F0
F1F0
FFF0
7FF0
3E60
ENDCHAR
STARTCHAR v
ENCODING 118
SWIDTH 500 0
DWIDTH 14 0
BBX 12 15 1 0
BITMAP
E070
E070
E070
E070
F0F0
F0F0
70E0
70E0
79E0
39C0
3FC0
1F80
1F80
0F00
0E00
ENDCHAR
STARTCHAR w
ENCODING 119
SWIDTH 722 0
DWIDTH 20 0
BBX 18 15 1 0
BITMAP
E0C1C0
E1E1C0
E1E1C0
E1E1C0
E1E1C0
F1E1C0
71E3C0
71F380
73F380
73F380
3F3F80
3F3F00
3F3F00
1E1E00
0E0C00
ENDCHAR
STARTCHAR x
ENCODING 120
SWIDTH 500 0
DWIDTH 14 0
BBX 12 15 1 0
BITMAP
6060
F0F0
F0F0
70E0
79E0
3FC0
1F80
3FC0
7FE0
79E0
F0F0
F0F0
E070
E070
C070
ENDCHAR
STARTCHAR y
ENCODING 121
SWIDTH 500 0
DWIDTH 14 0
BBX 13 21 1 -6
BITMAP
E030
E078
E078
E070
F070
F070
70F0
70E0
78E0
39C0
3DC0
1FC0
1F80
0F80
0F00
0F00
1E00
1E00
3C00
3800
3000
ENDCHAR
STARTCHAR z
ENCODING 122
SWIDTH 444 0
DWIDTH 12 0
BBX 12 15 0 0
BITMAP
3FE0
7FF0
7FF0
01E0
01E0
03C0
0FC0
1F80
3E00
3C00
7800
7800
FFF0
FFF0
7FF0
ENDCHAR
STARTCHAR braceleft
ENCODING 123
SWIDTH 389 0
DWIDTH 11 0
BBX 9 26 1 -6
BITMAP
0F80
1F80
1E00
1C00
1C00
1C00
1C00
1C00
1C00
1C00
1C00
7C00
F000
F800
3C00
1C00
1C00
1C00
1C00
1C00
1C00
1C00
1C00
1E00
1F80
0F80
ENDCHAR
STARTCHAR bar
ENCODING 124
SWIDTH 222 0
DWIDTH 6 0
BBX 3 28 2 -7
BITMAP
E0
E0
E0
E0
E0
E0
E0
E0
E0
E0
E0
E0
E0
E0
E0
E0
E0
E0
E0
E0
E0
E0
E0
E0
E0
E0
E0
E0
ENDCHAR
STARTCHAR braceright
ENCODING 125
SWIDTH 389 0
DWIDTH 11 0
BBX 8 26 1 -6
BITMAP
F0
F8
3C
1C
1C
1C
1C
1C
1C
1C
1C
1E
07
0F
1E
1C
1C
1C
1C
1C
1C
1C
1C
3C
FC
F8
ENDCHAR
STARTCHAR asciitilde
ENCODING 126
SWIDTH 600 0
DWIDTH 17 0
BBX 13 5 2 5
BITMAP
3000
7E10
FFF8
C7F0
01E0
ENDCHAR
STARTCHAR uni00A0
ENCODING 160
SWIDTH 305 0
DWIDTH 9 0
BBX 1 1 0 0
BITMAP
00
ENDCHAR
STARTCHAR exclamdown
ENCODING 161
SWIDTH 333 0
DWIDTH 9 0
BBX 4 19 3 -6
BITMAP
E0
F0
F0
E0
00
00
E0
E0
E0
E0
E0
E0
F0
F0
F0
F0
F0
F0
E0
ENDCHAR
STARTCHAR cent
ENCODING 162
SWIDTH 611 0
DWIDTH 17 0
BBX 13 21 1 -1
BITMAP
0180
0380
0380
0380
0FF8
3FF8
7FF8
FB80
F380
F380
F380
F380
FB80
7F80
3FF8
1FF8
07F8
0380
0380
0380
0380
ENDCHAR
STARTCHAR sterling
ENCODING 163
SWIDTH 611 0
DWIDTH 17 0
BBX 17 20 0 0
BITMAP
007E00
01FF80
03FF80
03E700
078000
078000
078000
078000
3FFE00
3FFE00
3FFE00
078000
078000
078000
078000
078000
1FE700
FFFF00
FFFF00
F9FE00
ENDCHAR
STARTCHAR currency
ENCODING 164
SWIDTH 611 0
DWIDTH 17 0
BBX 15 14 1 3
BITMAP
67C4
FFFE
7FFC
3C78
701C
701C
701C
701C
701C
701C
383C
7FFC
FFFE
67CC
ENDCHAR
STARTCHAR yen
ENCODING 165
SWIDTH 611 0
DWIDTH 17 0
BBX 15 20 1 0
BITMAP
600C
F01E
F01E
781C
783C
3C78
7C7C
7FFE
7FFC
07C0
07C0
7FFC
7FFC
7FFC
0380
0380
0380
0380
0380
0380
ENDCHAR
STARTCHAR brokenbar
ENCODING 166
SWIDTH 222 0
DWIDTH 6 0
BBX 3 24 2 -5
BITMAP
E0
E0
E0
E0
E0
E0
E0
E0
E0
E0
00
00
00
00
E0
E0
E0
E0
E0
E0
E0
E0
E0
E0
ENDCHAR
STARTCHAR section
ENCODING 167
SWIDTH 500 0
DWIDTH 14 0
BBX 12 20 1 0
BITMAP
1FE0
7FE0
7FE0
7000
7800
7E00
7F80
FFE0
E3F0
F0F0
FC70
7FF0
3FF0
0FE0
01E0
00E0
00E0
7FE0
FFE0
7F80
ENDCHAR
STARTCHAR dieresis
ENCODING 168
SWIDTH 278 0
DWIDTH 8 0
BBX 10 3 -1 16
BITMAP
E3C0
E3C0
6180
ENDCHAR
STARTCHAR copyright
ENCODING 169
SWIDTH 800 0
DWIDTH 22 0
BBX 20 20 1 0
BITMAP
01F800
07FF00
1F0F80
3C03C0
38F9E0
71FCE0
738E70
E70670
E70070
E70070
E70030
E70070
E70670
738E70
71FCE0
38F8E0
3C03C0
1F0F80
07FF00
01FC00
ENDCHAR
STARTCHAR ordfeminine
ENCODING 170
SWIDTH 334 0
DWIDTH 9 0
BBX 8 10 1 10
BITMAP
FE
FE
07
1F
7F
E7
C7
C7
FF
7B
ENDCHAR
STARTCHAR guillemotleft
ENCODING 171
SWIDTH 500 0
DWIDTH 14 0
BBX 11 11 2 2
BITMAP
38C0
39E0
79C0
73C0
F380
E780
F780
73C0
79C0
39E0
38C0
ENDCHAR
STARTCHAR logicalnot
ENCODING 172
SWIDTH 600 0
DWIDTH 17 0
BBX 15 9 1 3
BITMAP
FFFE
FFFE
FFFE
000E
000E
000E
000E
000E
000E
ENDCHAR
STARTCHAR uni00AD
ENCODING 173
SWIDTH 333 0
DWIDTH 9 0
BBX 7 3 1 6
BITMAP
7E
FE
7E
ENDCHAR
STARTCHAR registered
ENCODING 174
SWIDTH 800 0
DWIDTH 22 0
BBX 20 20 1 0
BITMAP
01F800
07FF00
1F0F80
3C03C0
3BF8E0
73FCE0
730E70
E30E70
E30E70
E3FC30
E3F830
E33070
E31870
731870
730CE0
3B0FE0
3C03C0
1F0F80
07FF00
01F800
ENDCHAR
STARTCHAR macron
ENCODING 175
SWIDTH 278 0
DWIDTH 8 0
BBX 8 2 0 17
BITMAP
FF
FF
ENDCHAR
STARTCHAR degree
ENCODING 176
SWIDTH 400 0
DWIDTH 11 0
BBX 8 8 2 12
BITMAP
38
FE
C6
83
83
C6
FE
3C
ENDCHAR
STARTCHAR plusminus
ENCODING 177
SWIDTH 600 0
DWIDTH 17 0
BBX 15 15 1 0
BITMAP
0380
0380
0380
0380
FFFE
FFFE
FFFE
0380
0380
0380
0380
0000
FFFE
FFFE
FFFE
ENDCHAR
STARTCHAR twosuperior
ENCODING 178
SWIDTH 366 0
DWIDTH 10 0
BBX 10 12 0 8
BITMAP
7F00
7F80
03C0
01C0
0380
0F80
1E00
7800
7000
E000
FFC0
FFC0
ENDCHAR
STARTCHAR threesuperior
ENCODING 179
SWIDTH 366 0
DWIDTH 10 0
BBX 10 12 0 8
BITMAP
FF80
FF80
0700
1C00
7F00
3F80
03C0
01C0
01C0
03C0
FF80
FF00
ENDCHAR
STARTCHAR acute
ENCODING 180
SWIDTH 278 0
DWIDTH 8 0
BBX 8 4 0 16
BITMAP
07
3F
FE
F0
ENDCHAR
STARTCHAR mu
ENCODING 181
SWIDTH 556 0
DWIDTH 16 0
BBX 12 21 2 -6
BITMAP
E060
E0F0
E0F0
E0F0
E0F0
E0F0
E0F0
E0F0
E0F0
E0F0
E0F0
F1F0
FFF0
FFF0
FE60
E000
E000
E000
E000
E000
E000
ENDCHAR
STARTCHAR paragraph
ENCODING 182
SWIDTH 620 0
DWIDTH 17 0
BBX 15 20 1 0
BITMAP
1FFE
7FFE
7FFE
FF8E
FF8E
FF8E
FF8E
FF8E
7F8E
1F8E
038E
038E
038E
038E
038E
038E
038E
038E
038E
038E
ENDCHAR
STARTCHAR periodcentered
ENCODING 183
SWIDTH 305 0
DWIDTH 9 0
BBX 4 4 2 5
BITMAP
70
F0
F0
70
ENDCHAR
STARTCHAR cedilla
ENCODING 184
SWIDTH 278 0
DWIDTH 8 0
BBX 8 7 0 -6
BITMAP
10
10
3E
06
07
EE
7C
ENDCHAR
STARTCHAR onesuperior
ENCODING 185
SWIDTH 366 0
DWIDTH 10 0
BBX 8 12 1 8
BITMAP
38
F8
F8
18
18
18
18
18
18
18
FF
FF
ENDCHAR
STARTCHAR ordmasculine
ENCODING 186
SWIDTH 334 0
DWIDTH 9 0
BBX 9 10 0 10
BITMAP
3E00
7F00
6380
E180
E180
E180
E180
6380
7F00
3E00
ENDCHAR
STARTCHAR guillemotright
ENCODING 187
SWIDTH 500 0
DWIDTH 14 0
BBX 11 11 1 2
BITMAP
6380
F380
73C0
79C0
39E0
3CE0
3DE0
79C0
73C0
F380
6380
ENDCHAR
STARTCHAR onequarter
ENCODING 188
SWIDTH 916 0
DWIDTH 26 0
BBX 24 20 1 0
BITMAP
380060
FC00E0
FC01E0
1C01C0
1C03C0
1C0780
1C0700
1C0F00
1C1E38
1C1C7C
FF3CFC
FF79DC
00739C
00F31C
01E71C
01C7FF
03C7FF
07801C
07001C
07001C
ENDCHAR
STARTCHAR onehalf
ENCODING 189
SWIDTH 916 0
DWIDTH 26 0
BBX 24 20 1 0
BITMAP
3800C0
F801E0
F801C0
3803C0
380780
380700
380F00
381E00
381DFC
383DFE
FF7807
FF7007
00F00E
01E03E
01C078
03C1F0
0781C0
070380
0F03FF
0601FF
ENDCHAR
STARTCHAR threequarters
ENCODING 190
SWIDTH 916 0
DWIDTH 26 0
BBX 25 20 1 0
BITMAP
FF806000
FF80F000
0700F000
1C01E000
7F03C000
3F83C000
03C78000
01CF0000
01CF1C00
03DE7C00
FFBCFC00
FF3CEC00
0079CC00
00F38C00
00F38C00
01E3FF80
03C3FF80
03C00C00
07800C00
03000C00
ENDCHAR
STARTCHAR questiondown
ENCODING 191
SWIDTH 500 0
DWIDTH 14 0
BBX 12 19 1 -6
BITMAP
0380
03C0
0380
0380
0000
0100
0380
0380
0780
0F80
3F00
7E00
7800
F000
F000
F000
FFF0
7FF0
3FF0
ENDCHAR
STARTCHAR Agrave
ENCODING 192
SWIDTH 667 0
DWIDTH 19 0
BBX 17 24 1 0
BITMAP
0F8000
0FE000
03F000
000000
01C000
03E000
07E000
0FF000
0F7000
1E7800
1E3800
1C3C00
3C1C00
3F9E00
7FFE00
7FFE00
707F00
F03F00
F00F00
F00F80
E00780
E00780
E00780
E00300
ENDCHAR
STARTCHAR Aacute
ENCODING 193
SWIDTH 667 0
DWIDTH 19 0
BBX 17 24 1 0
BITMAP
00F000
07F000
07E000
040000
01C000
03E000
07E000
0FF000
0F7000
1E7800
1E3800
1C3C00
3C1C00
3F9E00
7FFE00
7FFE00
707F00
F03F00
F00F00
F00F80
E00780
E00780
E00780
E00300
ENDCHAR
STARTCHAR Acircumflex
ENCODING 194
SWIDTH 667 0
DWIDTH 19 0
BBX 17 25 1 0
BITMAP
01C000
03E000
077000
0E3000
000000
01C000
03E000
07E000
0FF000
0F7000
1E7800
1E3800
1C3C00
3C1C00
3F9E00
7FFE00
7FFE00
707F00
F03F00
F00F00
F00F80
E00780
E00780
E00780
E00300
ENDCHAR
STARTCHAR Atilde
ENCODING 195
SWIDTH 667 0
DWIDTH 19 0
BBX 17 24 1 0
BITMAP
079800
0FF800
08F000
000000
01C000
03E000
07E000
0FF000
0F7000
1E7800
1E3800
1C3C00
3C1C00
3F9E00
7FFE00
7FFE00
707F00
F03F00
F00F00
F00F80
E00780
E00780
E00780
E00300
ENDCHAR
STARTCHAR Adieresis
ENCODING 196
SWIDTH 667 0
DWIDTH 19 0
BBX 17 24 1 0
BITMAP
0E3800
1E3800
0C3800
000000
01C000
03E000
07E000
0FF000
0F7000
1E7800
1E3800
1C3C00
3C1C00
3F9E00
7FFE00
7FFE00
707F00
F03F00
F00F00
F00F80
E00780
E00780
E00780
E00300
ENDCHAR
STARTCHAR Aring
ENCODING 197
SWIDTH 667 0
DWIDTH 19 0
BBX 17 27 1 0
BITMAP
008000
03E000
066000
062000
03E000
01C000
000000
01C000
03E000
07E000
0FF000
0F7000
1E7800
1E3800
1C3C00
3C1C00
3F9E00
7FFE00
7FFE00
707F00
F03F00
F00F00
F00F80
E00780
E00780
E00780
E00300
ENDCHAR
STARTCHAR AE
ENCODING 198
SWIDTH 889 0
DWIDTH 25 0
BBX 24 20 0 0
BITMAP
003FFF
007FFF
01FFFF
03EF00
03CF00
070F00
0F0FFE
0E7FFE
1DFFFE
1FFF00
3FCF00
3F0F00
7C0F00
780F00
780F00
F00F00
F00F00
E00FFF
E00FFF
E007FF
ENDCHAR
STARTCHAR Ccedilla
ENCODING 199
SWIDTH 611 0
DWIDTH 17 0
BBX 15 25 1 -5
BITMAP
07FE
1FFE
3FFE
7F00
7800
F800
F000
F000
F000
F000
F000
7800
7800
7C00
3E00
1F80
0FF8
07FE
03FE
00FE
0080
00F0
0038
0238
03F0
ENDCHAR
STARTCHAR Egrave
ENCODING 200
SWIDTH 556 0
DWIDTH 16 0
BBX 12 25 2 0
BITMAP
1000
3E00
3F80
07C0
0000
FFF0
FFF0
FFF0
F000
F000
F000
FFF0
FFF0
FFF0
F000
F000
F000
F000
F000
F000
F000
F000
FFF0
FFF0
7FF0
ENDCHAR
STARTCHAR Eacute
ENCODING 201
SWIDTH 556 0
DWIDTH 16 0
BBX 12 25 2 0
BITMAP
0080
07C0
1FC0
3E00
0000
FFF0
FFF0
FFF0
F000
F000
F000
FFF0
FFF0
FFF0
F000
F000
F000
F000
F000
F000
F000
F000
FFF0
FFF0
7FF0
ENDCHAR
STARTCHAR Ecircumflex
ENCODING 202
SWIDTH 556 0
DWIDTH 16 0
BBX 12 25 2 0
BITMAP
0600
0F00
1B80
39C0
0000
FFF0
FFF0
FFF0
F000
F000
F000
FFF0
FFF0
FFF0
F000
F000
F000
F000
F000
F000
F000
F000
FFF0
FFF0
7FF0
ENDCHAR
STARTCHAR Edieresis
ENCODING 203
SWIDTH 556 0
DWIDTH 16 0
BBX 12 24 2 0
BITMAP
70E0
79E0
30C0
0000
FFF0
FFF0
FFF0
F000
F000
F000
FFF0
FFF0
FFF0
F000
F000
F000
F000
F000
F000
F000
F000
FFF0
FFF0
7FF0
ENDCHAR
STARTCHAR Igrave
ENCODING 204
SWIDTH 278 0
DWIDTH 8 0
BBX 8 24 0 0
BITMAP
F0
FE
3F
00
18
3C
3C
3C
3C
3C
3C
3C
3C
3C
3C
3C
3C
3C
3C
3C
3C
3C
3C
18
ENDCHAR
STARTCHAR Iacute
ENCODING 205
SWIDTH 278 0
DWIDTH 8 0
BBX 8 24 0 0
BITMAP
1F
7F
FC
00
18
3C
3C
3C
3C
3C
3C
3C
3C
3C
3C
3C
3C
3C
3C
3C
3C
3C
3C
18
ENDCHAR
STARTCHAR Icircumflex
ENCODING 206
SWIDTH 278 0
DWIDTH 8 0
BBX 8 25 0 0
BITMAP
38
3C
6E
E7
00
18
3C
3C
3C
3C
3C
3C
3C
3C
3C
3C
3C
3C
3C
3C
3C
3C
3C
3C
18
ENDCHAR
STARTCHAR Idieresis
ENCODING 207
SWIDTH 278 0
DWIDTH 8 0
BBX 10 24 -1 0
BITMAP
E3C0
E3C0
6180
0000
0C00
1E00
1E00
1E00
1E00
1E00
1E00
1E00
1E00
1E00
1E00
1E00
1E00
1E00
1E00
1E00
1E00
1E00
1E00
0C00
ENDCHAR
STARTCHAR Eth
ENCODING 208
SWIDTH 667 0
DWIDTH 19 0
BBX 18 20 0 0
BITMAP
3F8000
3FE000
3FF800
39FC00
387E00
381F00
380F00
380F80
FF8780
FFC780
FF83C0
3803C0
3803C0
380380
380780
380F80
387F00
3FFF00
3FFE00
3FF800
ENDCHAR
STARTCHAR Ntilde
ENCODING 209
SWIDTH 611 0
DWIDTH 17 0
BBX 13 24 2 0
BITMAP
1E20
3FE0
23C0
0000
6038
F038
F838
FC38
FE38
FF38
EFF8
E7F8
E3F8
E0F8
E038
E038
E038
E038
E038
E038
E038
E038
E038
E038
ENDCHAR
STARTCHAR Ograve
ENCODING 210
SWIDTH 722 0
DWIDTH 20 0
BBX 18 24 1 0
BITMAP
078000
07F000
01F800
001000
03F000
0FFC00
1FFE00
3F1F00
7C0F80
780780
F803C0
F003C0
F003C0
F003C0
F003C0
F003C0
F003C0
F803C0
780780
7C0F80
3F1F00
1FFE00
0FFC00
03F000
ENDCHAR
STARTCHAR Oacute
ENCODING 211
SWIDTH 722 0
DWIDTH 20 0
BBX 18 24 1 0
BITMAP
007800
03F800
07E000
020000
03F000
0FFC00
1FFE00
3F1F00
7C0F80
780780
F803C0
F003C0
F003C0
F003C0
F003C0
F003C0
F003C0
F803C0
780780
7C0F80
3F1F00
1FFE00
0FFC00
03F000
ENDCHAR
STARTCHAR Ocircumflex
ENCODING 212
SWIDTH 722 0
DWIDTH 20 0
BBX 18 25 1 0
BITMAP
00E000
01E000
03B000
073800
000000
03F000
0FFC00
1FFE00
3F1F00
7C0F80
780780
F803C0
F003C0
F003C0
F003C0
F003C0
F003C0
F003C0
F803C0
780780
7C0F80
3F1F00
1FFE00
0FFC00
03F000
ENDCHAR
STARTCHAR Otilde
ENCODING 213
SWIDTH 722 0
DWIDTH 20 0
BBX 18 24 1 0
BITMAP
03CC00
07F800
0C7000
000000
03F000
0FFC00
1FFE00
3F1F00
7C0F80
780780
F803C0
F003C0
F003C0
F003C0
F003C0
F003C0
F003C0
F803C0
780780
7C0F80
3F1F00
1FFE00
0FFC00
03F000
ENDCHAR
STARTCHAR Odieresis
ENCODING 214
SWIDTH 722 0
DWIDTH 20 0
BBX 18 24 1 0
BITMAP
0F1C00
0F1C00
061800
000000
03F000
0FFC00
1FFE00
3F1F00
7C0F80
780780
F803C0
F003C0
F003C0
F003C0
F003C0
F003C0
F003C0
F803C0
780780
7C0F80
3F1F00
1FFE00
0FFC00
03F000
ENDCHAR
STARTCHAR multiply
ENCODING 215
SWIDTH 600 0
DWIDTH 17 0
BBX 13 15 2 0
BITMAP
4010
E038
F078
78F0
7DE0
3FC0
1F80
0F00
1F80
3FC0
3DE0
78F0
F078
E038
4010
ENDCHAR
STARTCHAR Oslash
ENCODING 216
SWIDTH 722 0
DWIDTH 20 0
BBX 18 26 1 -3
BITMAP
000600
000F00
000E00
03FE00
0FFE00
1FFE00
3F3F00
7C3F80
787F80
F873C0
F0F3C0
F0E3C0
F1E3C0
F1C3C0
F3C3C0
F3C3C0
FF83C0
7F8780
7F0F80
3F1F00
1FFE00
1FFC00
1FF000
3C0000
380000
100000
ENDCHAR
STARTCHAR Ugrave
ENCODING 217
SWIDTH 611 0
DWIDTH 17 0
BBX 15 25 1 0
BITMAP
0800
0F00
0FE0
03E0
0000
3018
783C
783C
783C
783C
701C
701C
701C
701C
701C
701E
F01E
F01E
F01E
701E
783C
7C7C
3FF8
1FF0
07C0
ENDCHAR
STARTCHAR Uacute
ENCODING 218
SWIDTH 611 0
DWIDTH 17 0
BBX 15 25 1 0
BITMAP
0020
01E0
0FE0
0F80
0000
3018
783C
783C
783C
783C
701C
701C
701C
701C
701C
701E
F01E
F01E
F01E
701E
783C
7C7C
3FF8
1FF0
07C0
ENDCHAR
STARTCHAR Ucircumflex
ENCODING 219
SWIDTH 611 0
DWIDTH 17 0
BBX 15 25 1 0
BITMAP
0380
07C0
0EE0
1C70
0000
3018
783C
783C
783C
783C
701C
701C
701C
701C
701C
701E
F01E
F01E
F01E
701E
783C
7C7C
3FF8
1FF0
07C0
ENDCHAR
STARTCHAR Udieresis
ENCODING 220
SWIDTH 611 0
DWIDTH 17 0
BBX 15 24 1 0
BITMAP
1C70
1C70
1C70
0000
3018
783C
783C
783C
783C
701C
701C
701C
701C
701C
701E
F01E
F01E
F01E
701E
783C
7C7C
3FF8
1FF0
07C0
ENDCHAR
STARTCHAR Yacute
ENCODING 221
SWIDTH 556 0
DWIDTH 16 0
BBX 15 24 0 0
BITMAP
00F0
07F0
0FC0
0400
600E
F01E
701E
781E
783C
3C3C
3C78
1EF8
0FF0
07E0
03C0
03C0
03C0
03C0
03C0
03C0
03C0
03C0
03C0
0380
ENDCHAR
STARTCHAR Thorn
ENCODING 222
SWIDTH 556 0
DWIDTH 16 0
BBX 14 20 2 0
BITMAP
6000
E000
E000
E000
FFF0
FFF8
FFF8
E03C
E03C
E078
E0F8
E3F0
FFE0
FF80
FE00
E000
E000
E000
E000
E000
ENDCHAR
STARTCHAR germandbls
ENCODING 223
SWIDTH 556 0
DWIDTH 16 0
BBX 15 20 0 0
BITMAP
0FC0
1FF0
3FF0
3870
3870
F8F0
FBE0
FB80
3F80
3FE0
3BF8
38FC
383C
381E
381E
381E
383E
3FFC
3FF8
3FF0
ENDCHAR
STARTCHAR agrave
ENCODING 224
SWIDTH 556 0
DWIDTH 16 0
BBX 12 20 1 0
BITMAP
1E00
1FC0
07C0
0000
0000
7FC0
7FE0
7FF0
0070
0070
0FF0
3FF0
7FF0
F070
E070
E070
F0F0
FFF0
7FF0
3F70
ENDCHAR
STARTCHAR aacute
ENCODING 225
SWIDTH 556 0
DWIDTH 16 0
BBX 12 20 1 0
BITMAP
03C0
1FE0
1F80
0000
0000
7FC0
7FE0
7FF0
0070
0070
0FF0
3FF0
7FF0
F070
E070
E070
F0F0
FFF0
7FF0
3F70
ENDCHAR
STARTCHAR acircumflex
ENCODING 226
SWIDTH 556 0
DWIDTH 16 0
BBX 12 20 1 0
BITMAP
0700
0F80
1DC0
18E0
0000
7FC0
7FE0
7FF0
0070
0070
0FF0
3FF0
7FF0
F070
E070
E070
F0F0
FFF0
7FF0
3F70
ENDCHAR
STARTCHAR atilde
ENCODING 227
SWIDTH 556 0
DWIDTH 16 0
BBX 12 20 1 0
BITMAP
1C20
3FE0
23C0
0000
0000
7FC0
7FE0
7FF0
0070
0070
0FF0
3FF0
7FF0
F070
E070
E070
F0F0
FFF0
7FF0
3F70
ENDCHAR
STARTCHAR adieresis
ENCODING 228
SWIDTH 556 0
DWIDTH 16 0
BBX 12 20 1 0
BITMAP
38E0
38E0
3860
0000
0000
7FC0
7FE0
7FF0
0070
0070
0FF0
3FF0
7FF0
F070
E070
E070
F0F0
FFF0
7FF0
3F70
ENDCHAR
STARTCHAR aring
ENCODING 229
SWIDTH 556 0
DWIDTH 16 0
BBX 12 23 1 0
BITMAP
0200
0F80
0C80
08C0
0C80
0F80
0200
0000
7FC0
7FE0
7FF0
0070
0070
0FF0
3FF0
7FF0
F070
E070
E070
F0F0
FFF0
7FF0
3F70
ENDCHAR
STARTCHAR ae
ENCODING 230
SWIDTH 778 0
DWIDTH 22 0
BBX 21 15 0 0
BITMAP
3FC7C0
7FFFE0
3FFFF0
00F878
007838
0FFFF8
3FFFF8
7FFFE0
787000
F07800
F07800
F0FC00
7FFFF8
7FFFF8
1FC7F8
ENDCHAR
STARTCHAR ccedilla
ENCODING 231
SWIDTH 500 0
DWIDTH 14 0
BBX 13 20 1 -5
BITMAP
1FF0
3FF8
7FF0
F800
F000
F000
F000
F000
F000
F000
7800
3E00
3FF8
0FF8
03F0
0200
03C0
00E0
08E0
0FC0
ENDCHAR
STARTCHAR egrave
ENCODING 232
SWIDTH 556 0
DWIDTH 16 0
BBX 14 20 1 0
BITMAP
1E00
1FC0
0FE0
00C0
0000
0FC0
1FE0
3FF0
7878
7078
F038
FFFC
FFFC
FFF0
F000
F000
7C00
7FF8
3FF8
0FF8
ENDCHAR
STARTCHAR eacute
ENCODING 233
SWIDTH 556 0
DWIDTH 16 0
BBX 14 20 1 0
BITMAP
01E0
0FE0
1FC0
0800
0000
0FC0
1FE0
3FF0
7878
7078
F038
FFFC
FFFC
FFF0
F000
F000
7C00
7FF8
3FF8
0FF8
ENDCHAR
STARTCHAR ecircumflex
ENCODING 234
SWIDTH 556 0
DWIDTH 16 0
BBX 14 20 1 0
BITMAP
0700
0780
0DC0
1CE0
0000
0FC0
1FE0
3FF0
7878
7078
F038
FFFC
FFFC
FFF0
F000
F000
7C00
7FF8
3FF8
0FF8
ENDCHAR
STARTCHAR edieresis
ENCODING 235
SWIDTH 556 0
DWIDTH 16 0
BBX 14 20 1 0
BITMAP
1860
3CF0
3870
0000
0000
0FC0
1FE0
3FF0
7878
7078
F038
FFFC
FFFC
FFF0
F000
F000
7C00
7FF8
3FF8
0FF8
ENDCHAR
STARTCHAR igrave
ENCODING 236
SWIDTH 278 0
DWIDTH 8 0
BBX 8 20 0 0
BITMAP
F0
FE
7F
06
00
18
3C
3C
3C
3C
3C
3C
3C
3C
3C
3C
3C
3C
3C
18
ENDCHAR
STARTCHAR iacute
ENCODING 237
SWIDTH 278 0
DWIDTH 8 0
BBX 8 20 0 0
BITMAP
0F
7F
FC
40
00
18
3C
3C
3C
3C
3C
3C
3C
3C
3C
3C
3C
3C
3C
18
ENDCHAR
STARTCHAR icircumflex
ENCODING 238
SWIDTH 278 0
DWIDTH 8 0
BBX 8 20 0 0
BITMAP
38
7C
6E
E7
00
18
3C
3C
3C
3C
3C
3C
3C
3C
3C
3C
3C
3C
3C
18
ENDCHAR
STARTCHAR idieresis
ENCODING 239
SWIDTH 278 0
DWIDTH 8 0
BBX 10 20 -1 0
BITMAP
6180
E3C0
E3C0
0000
0000
0C00
1E00
1E00
1E00
1E00
1E00
1E00
1E00
1E00
1E00
1E00
1E00
1E00
1E00
0C00
ENDCHAR
STARTCHAR eth
ENCODING 240
SWIDTH 556 0
DWIDTH 16 0
BBX 13 20 1 0
BITMAP
3CE0
3FE0
3F80
0FC0
1FE0
18F0
00F0
0F78
3FF8
7FF8
7878
F078
F038
F038
F038
F078
7878
7FF0
3FE0
0F80
ENDCHAR
STARTCHAR ntilde
ENCODING 241
SWIDTH 556 0
DWIDTH 16 0
BBX 12 20 2 0
BITMAP
1C60
3FC0
6780
0000
0000
EF80
FFC0
FFE0
F8F0
F0F0
E0F0
E0F0
E0F0
E0F0
E0F0
E0F0
E0F0
E0F0
E0F0
E060
ENDCHAR
STARTCHAR ograve
ENCODING 242
SWIDTH 556 0
DWIDTH 16 0
BBX 14 20 1 0
BITMAP
1E00
1FC0
0FE0
00C0
0000
0FC0
3FE0
7FF0
78F8
F078
F038
E03C
E03C
E03C
F038
F078
78F8
7FF0
3FE0
0F80
ENDCHAR
STARTCHAR oacute
ENCODING 243
SWIDTH 556 0
DWIDTH 16 0
BBX 14 20 1 0
BITMAP
01E0
0FE0
1F80
0800
0000
0FC0
3FE0
7FF0
78F8
F078
F038
E03C
E03C
E03C
F038
F078
78F8
7FF0
3FE0
0F80
ENDCHAR
STARTCHAR ocircumflex
ENCODING 244
SWIDTH 556 0
DWIDTH 16 0
BBX 14 20 1 0
BITMAP
0700
0F80
0DC0
18E0
0000
0FC0
3FE0
7FF0
78F8
F078
F038
E03C
E03C
E03C
F038
F078
78F8
7FF0
3FE0
0F80
ENDCHAR
STARTCHAR otilde
ENCODING 245
SWIDTH 556 0
DWIDTH 16 0
BBX 14 20 1 0
BITMAP
0C20
1FE0
33C0
0000
0000
0FC0
3FE0
7FF0
78F8
F078
F038
E03C
E03C
E03C
F038
F078
78F8
7FF0
3FE0
0F80
ENDCHAR
STARTCHAR odieresis
ENCODING 246
SWIDTH 556 0
DWIDTH 16 0
BBX 14 20 1 0
BITMAP
3860
38F0
38E0
0000
0000
0FC0
3FE0
7FF0
78F8
F078
F038
E03C
E03C
E03C
F038
F078
78F8
7FF0
3FE0
0F80
ENDCHAR
STARTCHAR divide
ENCODING 247
SWIDTH 600 0
DWIDTH 17 0
BBX 15 16 1 -1
BITMAP
0380
07C0
07C0
0780
0380
0000
FFFE
FFFE
FFFE
0000
0000
0300
0780
07C0
07C0
0380
ENDCHAR
STARTCHAR oslash
ENCODING 248
SWIDTH 556 0
DWIDTH 16 0
BBX 14 19 1 -2
BITMAP
0030
0030
0FF0
3FE0
7FF0
78F8
F1F8
F1B8
E33C
E33C
E63C
F638
FC78
7CF8
7FF0
3FE0
3F80
7000
6000
ENDCHAR
STARTCHAR ugrave
ENCODING 249
SWIDTH 556 0
DWIDTH 16 0
BBX 12 20 2 0
BITMAP
3C00
3F80
1FC0
0180
0000
E060
E0F0
E0F0
E0F0
E0F0
E0F0
E0F0
E0F0
E0F0
E0F0
E0F0
F1F0
FFF0
7FF0
3E60
ENDCHAR
STARTCHAR uacute
ENCODING 250
SWIDTH 556 0
DWIDTH 16 0
BBX 12 20 2 0
BITMAP
03C0
1FC0
3F00
1000
0000
E060
E0F0
E0F0
E0F0
E0F0
E0F0
E0F0
E0F0
E0F0
E0F0
E0F0
F1F0
FFF0
7FF0
3E60
ENDCHAR
STARTCHAR ucircumflex
ENCODING 251
SWIDTH 556 0
DWIDTH 16 0
BBX 12 20 2 0
BITMAP
0E00
1F00
1B80
31C0
0000
E060
E0F0
E0F0
E0F0
E0F0
E0F0
E0F0
E0F0
E0F0
E0F0
E0F0
F1F0
FFF0
7FF0
3E60
ENDCHAR
STARTCHAR udieresis
ENCODING 252
SWIDTH 556 0
DWIDTH 16 0
BBX 12 20 2 0
BITMAP
70C0
71E0
71C0
0000
0000
E060
E0F0
E0F0
E0F0
E0F0
E0F0
E0F0
E0F0
E0F0
E0F0
E0F0
F1F0
FFF0
7FF0
3E60
ENDCHAR
STARTCHAR yacute
ENCODING 253
SWIDTH 500 0
DWIDTH 14 0
BBX 13 26 1 -6
BITMAP
03C0
1FC0
3F80
1000
0000
E030
E078
E078
E070
F070
F070
70F0
70E0
78E0
39C0
3DC0
1FC0
1F80
0F80
0F00
0F00
1E00
1E00
3C00
3800
3000
ENDCHAR
STARTCHAR thorn
ENCODING 254
SWIDTH 556 0
DWIDTH 16 0
BBX 13 26 2 -6
BITMAP
E000
E000
E000
E000
E000
FC00
FF80
FFC0
E3E0
E1F0
E0F0
E078
E078
E078
E078
E070
E1F0
FFF0
FFE0
FF80
E000
E000
E000
E000
E000
E000
ENDCHAR
STARTCHAR ydieresis
ENCODING 255
SWIDTH 500 0
DWIDTH 14 0
BBX 13 26 1 -6
BITMAP
30C0
79E0
70E0
0000
0000
E030
E078
E078
E070
F070
F070
70F0
70E0
78E0
39C0
3DC0
1FC0
1F80
0F80
0F00
0F00
1E00
1E00
3C00
3800
3000
ENDCHAR
STARTCHAR .notdef
ENCODING -1
SWIDTH 500 0
DWIDTH 14 0
BBX 14 19 0 0
BITMAP
FFFC
E01C
A014
B034
9864
8844
8CC4
8784
8304
8304
8784
8484
8CC4
9864
9024
B034
E01C
C00C
FFFC
ENDCHAR
STARTCHAR quoteright
ENCODING -1
SWIDTH 222 0
DWIDTH 6 0
BBX 5 8 1 12
BITMAP
30
78
78
70
F0
E0
E0
C0
ENDCHAR
STARTCHAR quoteleft
ENCODING -1
SWIDTH 222 0
DWIDTH 6 0
BBX 6 8 0 12
BITMAP
60
F0
70
78
38
38
1C
18
ENDCHAR
STARTCHAR fraction
ENCODING -1
SWIDTH 167 0
DWIDTH 5 0
BBX 15 20 -5 0
BITMAP
000C
001E
003C
003C
0078
00F0
00F0
01E0
03C0
03C0
0780
0F00
0F00
1E00
3C00
3C00
7800
F000
F000
6000
ENDCHAR
STARTCHAR florin
ENCODING -1
SWIDTH 611 0
DWIDTH 17 0
BBX 17 26 0 -6
BITMAP
001F00
003F80
007F80
00FE00
00F000
00F000
00E000
07F800
0FFE00
1FFE00
0FFC00
01E000
01C000
03C000
03C000
03C000
03C000
03C000
038000
078000
078000
078000
3F0000
FF0000
FE0000
FC0000
ENDCHAR
STARTCHAR quotedblleft
ENCODING -1
SWIDTH 389 0
DWIDTH 11 0
BBX 11 8 0 12
BITMAP
6300
F780
F380
73C0
79C0
39C0
39E0
18C0
ENDCHAR
STARTCHAR guilsinglleft
ENCODING -1
SWIDTH 333 0
DWIDTH 9 0
BBX 6 11 2 2
BITMAP
18
3C
38
78
70
F0
70
78
38
3C
18
ENDCHAR
STARTCHAR guilsinglright
ENCODING -1
SWIDTH 333 0
DWIDTH 9 0
BBX 5 11 2 2
BITMAP
C0
E0
F0
70
78
38
78
70
F0
E0
C0
ENDCHAR
STARTCHAR fi
ENCODING -1
SWIDTH 611 0
DWIDTH 17 0
BBX 15 20 0 0
BITMAP
07FC
1FFE
1FFE
3C0E
3C00
FFFC
FFFE
FFFE
3C0E
3C0E
3C0E
3C0E
3C0E
3C0E
3C0E
3C0E
3C0E
3C0E
3C0E
180C
ENDCHAR
STARTCHAR fl
ENCODING -1
SWIDTH 611 0
DWIDTH 17 0
BBX 15 20 0 0
BITMAP
07FC
1FFE
1FFE
1C0E
3C0E
FF8E
FFCE
FF8E
3C0E
3C0E
3C0E
3C0E
3C0E
3C0E
3C0E
3C0E
3C0E
3C0E
3C0E
180C
ENDCHAR
STARTCHAR endash
ENCODING -1
SWIDTH 500 0
DWIDTH 14 0
BBX 14 2 0 6
BITMAP
FFFC
FFFC
ENDCHAR
STARTCHAR dagger
ENCODING -1
SWIDTH 444 0
DWIDTH 12 0
BBX 10 20 1 0
BITMAP
0C00
0E00
0E00
0E00
7FC0
FFC0
7FC0
0E00
0E00
0E00
0E00
0E00
0E00
1E00
1E00
1E00
1E00
1E00
1E00
0C00
ENDCHAR
STARTCHAR daggerdbl
ENCODING -1
SWIDTH 444 0
DWIDTH 12 0
BBX 10 20 1 0
BITMAP
0C00
0E00
0E00
0E00
7FC0
FFC0
7FC0
0E00
0E00
0E00
0E00
0E00
0E00
7FC0
FFC0
7FC0
0E00
0E00
0E00
0C00
ENDCHAR
STARTCHAR bullet
ENCODING -1
SWIDTH 500 0
DWIDTH 14 0
BBX 10 10 2 5
BITMAP
0C00
3F00
7F80
FF80
FFC0
FFC0
FFC0
7F80
7F80
1E00
ENDCHAR
STARTCHAR quotesinglbase
ENCODING -1
SWIDTH 222 0
DWIDTH 6 0
BBX 5 8 1 -3
BITMAP
30
78
78
70
F0
E0
E0
C0
ENDCHAR
STARTCHAR quotedblbase
ENCODING -1
SWIDTH 389 0
DWIDTH 11 0
BBX 11 8 0 -3
BITMAP
18C0
3DE0
39C0
7BC0
73C0
7380
E380
6300
ENDCHAR
STARTCHAR quotedblright
ENCODING -1
SWIDTH 389 0
DWIDTH 11 0
BBX 11 8 0 12
BITMAP
18C0
3DE0
39C0
7BC0
73C0
7380
E380
6300
ENDCHAR
STARTCHAR ellipsis
ENCODING -1
SWIDTH 1000 0
DWIDTH 28 0
BBX 22 4 3 0
BITMAP
E0301C
F0783C
F0783C
E0301C
ENDCHAR
STARTCHAR perthousand
ENCODING -1
SWIDTH 1000 0
DWIDTH 28 0
BBX 28 20 0 0
BITMAP
3C060000
7F0E0000
7F0E0000
E79C0000
E39C0000
E3B80000
E7B80000
7F700000
7F700000
3CE00000
00CF03C0
01DF8FE0
03BFCFE0
03B9DE70
0738FC70
0738FC70
0E39DE70
0E3FCFE0
1C1F8FE0
0C0F03C0
ENDCHAR
STARTCHAR circumflex
ENCODING -1
SWIDTH 278 0
DWIDTH 8 0
BBX 8 4 0 16
BITMAP
38
3C
6E
E7
ENDCHAR
STARTCHAR tilde
ENCODING -1
SWIDTH 278 0
DWIDTH 8 0
BBX 10 4 -1 16
BITMAP
30C0
7F80
CF00
8000
ENDCHAR
STARTCHAR breve
ENCODING -1
SWIDTH 278 0
DWIDTH 8 0
BBX 8 4 0 16
BITMAP
81
C3
FF
7E
ENDCHAR
STARTCHAR dotaccent
ENCODING -1
SWIDTH 278 0
DWIDTH 8 0
BBX 4 3 2 16
BITMAP
E0
F0
60
ENDCHAR
STARTCHAR ring
ENCODING -1
SWIDTH 278 0
DWIDTH 8 0
BBX 6 5 1 16
BITMAP
78
CC
CC
FC
78
ENDCHAR
STARTCHAR hungarumlaut
ENCODING -1
SWIDTH 278 0
DWIDTH 8 0
BBX 11 6 -2 15
BITMAP
1860
1CE0
39E0
71C0
6380
E700
ENDCHAR
STARTCHAR ogonek
ENCODING -1
SWIDTH 278 0
DWIDTH 8 0
BBX 6 6 1 -6
BITMAP
1C
60
C0
C0
EC
78
ENDCHAR
STARTCHAR caron
ENCODING -1
SWIDTH 278 0
DWIDTH 8 0
BBX 8 4 0 16
BITMAP
C7
E6
7E
3C
ENDCHAR
STARTCHAR emdash
ENCODING -1
SWIDTH 1000 0
DWIDTH 28 0
BBX 28 2 0 6
BITMAP
FFFFFFF0
FFFFFFF0
ENDCHAR
STARTCHAR Lslash
ENCODING -1
SWIDTH 444 0
DWIDTH 12 0
BBX 14 20 -1 0
BITMAP
0C00
1C00
1E00
1E00
1E00
1E00
1E00
1FE0
1FE0
1FC0
7F00
FE00
7E00
1E00
1E00
1E00
1E00
1FFC
1FFC
0FF8
ENDCHAR
STARTCHAR OE
ENCODING -1
SWIDTH 1000 0
DWIDTH 28 0
BBX 26 20 1 0
BITMAP
03E3FFC0
0FFFFFC0
1FFFFFC0
3E3F8000
780F8000
78078000
F007FF80
F007FFC0
F003FFC0
F0038000
F0038000
F0038000
F0078000
F0078000
78078000
7C0F8000
3E3F8000
1FFFFFC0
0FFBFFC0
03E3FFC0
ENDCHAR
STARTCHAR dotlessi
ENCODING -1
SWIDTH 278 0
DWIDTH 8 0
BBX 4 15 2 0
BITMAP
60
F0
F0
F0
F0
F0
F0
F0
F0
F0
F0
F0
F0
F0
60
ENDCHAR
STARTCHAR lslash
ENCODING -1
SWIDTH 278 0
DWIDTH 8 0
BBX 9 20 -1 0
BITMAP
0C00
1E00
1E00
1E00
1E00
1E00
1F80
1F80
1F80
7E00
FE00
7E00
1E00
1E00
1E00
1E00
1E00
1E00
1E00
0C00
ENDCHAR
STARTCHAR oe
ENCODING -1
SWIDTH 833 0
DWIDTH 23 0
BBX 22 15 1 0
BITMAP
0F83C0
3FCFF0
7FFFF8
F8FC38
F0783C
E07FFC
E07FFC
E07FFC
E07800
E07800
F07C00
F8FE00
7FFFFC
3FCFFC
1F83FC
ENDCHAR
STARTCHAR trademark
ENCODING -1
SWIDTH 1000 0
DWIDTH 28 0
BBX 26 12 1 8
BITMAP
FFCF07C0
FFCF87C0
0C0F87C0
0C0F8FC0
0C0FCDC0
0C0ECDC0
0C0EFDC0
0C0EF9C0
0C0E79C0
0C0E79C0
0C0E71C0
0C0E31C0
ENDCHAR
STARTCHAR minus
ENCODING -1
SWIDTH 600 0
DWIDTH 17 0
BBX 15 3 1 6
BITMAP
FFFE
FFFE
FFFE
ENDCHAR
STARTCHAR Scaron
ENCODING -1
SWIDTH 611 0
DWIDTH 17 0
BBX 15 25 1 0
BITMAP
0C30
0E60
07E0
03C0
0000
1FF8
7FF8
7FF8
F800
F000
F000
FE00
7FE0
3FF8
0FFC
007E
001E
001E
001E
001E
001E
00FC
FFFC
FFF0
FFE0
ENDCHAR
STARTCHAR Ydieresis
ENCODING -1
SWIDTH 556 0
DWIDTH 16 0
BBX 15 24 0 0
BITMAP
1E38
1E38
0C30
0000
600E
F01E
701E
781E
783C
3C3C
3C78
1EF8
0FF0
07E0
03C0
03C0
03C0
03C0
03C0
03C0
03C0
03C0
03C0
0380
ENDCHAR
STARTCHAR Zcaron
ENCODING -1
SWIDTH 500 0
DWIDTH 14 0
BBX 12 25 1 0
BITMAP
38E0
1DC0
0F80
0700
0000
7FF0
FFF0
7FF0
0070
00F0
00F0
01E0
03E0
07C0
0F80
1F00
3E00
7C00
7800
F000
F000
E000
FFF0
FFF0
7FF0
ENDCHAR
STARTCHAR scaron
ENCODING -1
SWIDTH 500 0
DWIDTH 14 0
BBX 12 20 1 0
BITMAP
30C0
3980
1F80
0F00
0000
3FE0
7FE0
FFE0
E000
F000
FF80
7FE0
3FF0
00F0
0070
0070
00F0
FFF0
FFE0
FF80
ENDCHAR
STARTCHAR zcaron
ENCODING -1
SWIDTH 444 0
DWIDTH 12 0
BBX 12 20 0 0
BITMAP
38C0
19C0
0F80
0F00
0000
3FE0
7FF0
7FF0
01E0
01E0
03C0
0FC0
1F80
3E00
3C00
7800
7800
FFF0
FFF0
7FF0
ENDCHAR
STARTCHAR Delta
ENCODING -1
SWIDTH 709 0
DWIDTH 20 0
BBX 18 20 1 0
BITMAP
01E000
03F000
03F000
03F000
077800
073800
0F3C00
0E3C00
0E1C00
1C1E00
1C0E00
3C0F00
380F00
380700
700780
700380
F00380
FFFFC0
FFFFC0
FFFFC0
ENDCHAR
STARTCHAR Omega
ENCODING -1
SWIDTH 786 0
DWIDTH 22 0
BBX 20 19 1 0
BITMAP
01F800
07FE00
1FFF80
3E0780
3C03C0
7801E0
7801E0
7000E0
7000E0
7000E0
7000E0
7000E0
7801C0
3801C0
1C0380
0C0300
FE0FF0
FF0FF0
FF0FF0
ENDCHAR
STARTCHAR pi
ENCODING -1
SWIDTH 641 0
DWIDTH 18 0
BBX 17 14 0 0
BITMAP
7FFF80
FFFF80
FFFF80
0E0E00
0E0E00
1E0E00
1E0E00
1E0E00
1C0E00
1C0E00
1C0E00
3C0E00
3C0E00
380E00
ENDCHAR
STARTCHAR Euro
ENCODING -1
SWIDTH 611 0
DWIDTH 17 0
BBX 17 20 0 0
BITMAP
01FF00
07FF80
0FFF00
0F8000
1E0000
7FF000
FFF800
7FF000
1C0000
1C0000
7FF000
FFF800
7FF000
0F0000
0F8000
07C000
03FE00
01FF80
00FF80
001F00
ENDCHAR
STARTCHAR estimated
ENCODING -1
SWIDTH 844 0
DWIDTH 24 0
BBX 22 20 1 0
BITMAP
01FC00
060300
0800C0
100060
300030
700030
700038
F00038
F0003C
F0003C
FFFFFC
F00000
F00000
700000
700000
300000
300020
0800C0
060180
01FE00
ENDCHAR
STARTCHAR partialdiff
ENCODING -1
SWIDTH 610 0
DWIDTH 17 0
BBX 15 22 1 0
BITMAP
0700
3FC0
7FF0
20F8
0078
003C
001C
001C
021E
1FDE
3FFE
7C7E
703E
F01C
F01C
E01C
F03C
F038
7878
7FF0
3FE0
0F80
ENDCHAR
STARTCHAR product
ENCODING -1
SWIDTH 767 0
DWIDTH 21 0
BBX 20 22 1 -3
BITMAP
FFFFF0
FFFFF0
FFFFF0
1C0780
1C0780
1C0780
1C0780
1C0780
1C0780
1C0780
1C0780
1C0780
1C0780
1C0780
1C0780
1C0780
1C0780
1C0780
1C0780
1C0780
1C0780
1C0780
ENDCHAR
STARTCHAR summation
ENCODING -1
SWIDTH 602 0
DWIDTH 17 0
BBX 15 22 1 -3
BITMAP
FFFE
FFFE
FFFE
7800
3C00
3E00
1E00
0F00
0780
03C0
01E0
01C0
0380
0780
0F00
1E00
1C00
3800
7000
FFFE
FFFE
FFFE
ENDCHAR
STARTCHAR uni2219
ENCODING -1
SWIDTH 305 0
DWIDTH 9 0
BBX 4 4 2 5
BITMAP
70
F0
F0
70
ENDCHAR
STARTCHAR radical
ENCODING -1
SWIDTH 626 0
DWIDTH 18 0
BBX 17 26 1 -4
BITMAP
000380
000300
000300
000700
000700
000600
000600
000E00
000E00
000C00
000C00
081C00
781C00
FC1800
9C1800
1C3800
0E3000
0E3000
0E3000
077000
076000
036000
03E000
03E000
01C000
01C000
ENDCHAR
STARTCHAR infinity
ENCODING -1
SWIDTH 799 0
DWIDTH 22 0
BBX 20 9 1 3
BITMAP
1E0380
3F8FE0
61D870
C0F030
C07030
60F830
619C60
3F0FE0
1E0380
ENDCHAR
STARTCHAR integral
ENCODING -1
SWIDTH 395 0
DWIDTH 11 0
BBX 11 27 0 -4
BITMAP
03E0
07C0
0700
0E00
0E00
0E00
0E00
0E00
0E00
0E00
0E00
0E00
0E00
0E00
0E00
0E00
0E00
0E00
0E00
0E00
0E00
0E00
0E00
0E00
1E00
7C00
F800
ENDCHAR
STARTCHAR approxequal
ENCODING -1
SWIDTH 590 0
DWIDTH 17 0
BBX 14 10 1 3
BITMAP
1C00
7F0C
679C
C3F8
40F0
0000
3E04
7F8C
E3F8
40F0
ENDCHAR
STARTCHAR notequal
ENCODING -1
SWIDTH 590 0
DWIDTH 17 0
BBX 14 14 1 1
BITMAP
0060
0060
00C0
FFFC
FFFC
0180
0100
0300
0200
FFFC
FFFC
0C00
0C00
1800
ENDCHAR
STARTCHAR lessequal
ENCODING -1
SWIDTH 590 0
DWIDTH 17 0
BBX 14 17 1 0
BITMAP
001C
007C
01F0
07C0
1E00
7800
6000
7000
3E00
0F80
01E0
0078
001C
0004
0000
FFFC
FFFC
ENDCHAR
STARTCHAR greaterequal
ENCODING -1
SWIDTH 590 0
DWIDTH 17 0
BBX 14 17 1 0
BITMAP
6000
7800
1E00
0780
01F0
007C
000C
003C
00F0
03C0
1F00
7C00
7000
4000
0000
FFFC
FFFC
ENDCHAR
STARTCHAR lozenge
ENCODING -1
SWIDTH 626 0
DWIDTH 18 0
BBX 14 22 2 -2
BITMAP
0700
0780
0F80
0DC0
1CE0
38E0
3870
7070
7038
E038
E01C
E01C
E038
7030
3070
3860
1CE0
1DC0
0FC0
0F80
0780
0700
ENDCHAR
STARTCHAR uni02C9
ENCODING -1
SWIDTH 278 0
DWIDTH 8 0
BBX 8 2 0 17
BITMAP
FF
FF
ENDCHAR
STARTCHAR uni03A9
ENCODING -1
SWIDTH 786 0
DWIDTH 22 0
BBX 20 19 1 0
BITMAP
01F800
07FE00
1FFF80
3E0780
3C03C0
7801E0
7801E0
7000E0
7000E0
7000E0
7000E0
7000E0
7801C0
3801C0
1C0380
0C0300
FE0FF0
FF0FF0
FF0FF0
ENDCHAR
STARTCHAR afii61289
ENCODING -1
SWIDTH 552 0
DWIDTH 15 0
BBX 14 21 1 0
BITMAP
0780
0FE0
1EE0
1C60
3C70
3870
3860
38E0
38E0
39C0
3B80
3F00
3F00
3C00
7800
F800
FC08
3C1C
1FF8
0FF0
07C0
ENDCHAR
STARTCHAR uni03BC
ENCODING -1
SWIDTH 556 0
DWIDTH 16 0
BBX 12 21 2 -6
BITMAP
E060
E0F0
E0F0
E0F0
E0F0
E0F0
E0F0
E0F0
E0F0
E0F0
E0F0
F1F0
FFF0
FFF0
FE60
E000
E000
E000
E000
E000
E000
ENDCHAR
STARTCHAR uni2215
ENCODING -1
SWIDTH 167 0
DWIDTH 5 0
BBX 15 20 -5 0
BITMAP
000C
001E
003C
003C
0078
00F0
00F0
01E0
03C0
03C0
0780
0F00
0F00
1E00
3C00
3C00
7800
F000
F000
6000
ENDCHAR
ENDFONT
